<?xml version="1.0" encoding="utf-8"?>
<!-- Generator: Adobe Illustrator 27.2.0, SVG Export Plug-In . SVG Version: 6.00 Build 0)  -->
<svg version="1.1" xmlns="http://www.w3.org/2000/svg" xmlns:xlink="http://www.w3.org/1999/xlink" x="0px" y="0px"
	 viewBox="0 0 89.25 62.42" style="enable-background:new 0 0 89.25 62.42;" xml:space="preserve">
<style type="text/css">
	.st0{fill:#FFFFFF;}
	.st1{fill:none;stroke:#000000;stroke-miterlimit:10;}
	.st2{fill:none;stroke:#000000;stroke-linecap:round;stroke-linejoin:round;stroke-miterlimit:10;}
</style>
<g id="Layer_2">
</g>
<g id="Layer_3">
	<path class="st0" d="M80.67,0.35H50.26h-1.92H23.51C10.82,0.35,0.5,10.67,0.5,23.36v15.7c0,12.69,10.32,23.01,23.01,23.01h17.85
		h8.9H60.7c4.46,0,8.09-3.63,8.09-8.09c0-3.34-2.04-6.22-4.94-7.45c3.32-1.01,5.74-4.09,5.74-7.74c0-3.15-1.81-5.88-4.45-7.21
		c3.84-0.62,6.79-3.96,6.79-7.97c0-3.06-1.71-5.72-4.22-7.1h12.95c4.46,0,8.09-3.63,8.09-8.09S85.13,0.35,80.67,0.35z"/>
</g>
<g id="Layer_1">
	<g>
		<path class="st1" d="M49.76,61.58H23.51c-12.44,0-22.52-10.08-22.52-22.52v-15.7c0-12.44,10.08-22.52,22.52-22.52h15.92h10.33"/>
		<path class="st1" d="M48.33,0.85h32.33c4.19,0,7.59,3.4,7.59,7.59v0c0,4.19-3.4,7.59-7.59,7.59H50.53"/>
		<path class="st1" d="M50.53,16.03h13.31c4.19,0,7.59,3.4,7.59,7.59v0c0,4.19-3.4,7.59-7.59,7.59H52.68"/>
		<path class="st1" d="M52.68,31.21h8.82c4.19,0,7.59,3.4,7.59,7.59v0c0,4.19-3.4,7.59-7.59,7.59H42.16c-4.19,0-7.59-3.4-7.59-7.59
			v0c0-1.8,0.62-3.45,1.67-4.75"/>
		<path class="st1" d="M60.7,61.58H41.36c-4.19,0-7.59-3.4-7.59-7.59v0c0-4.19,3.4-7.59,7.59-7.59H60.7c4.19,0,7.59,3.4,7.59,7.59v0
			C68.3,58.18,64.9,61.58,60.7,61.58z"/>
		<path class="st2" d="M39.43,0.85c5.13-0.08,9.37,2.93,10.07,7.87l1.03,7.32l1.75,12.38l0.45,3.2c0.68,4.78-2.47,9.17-7.02,9.81
			l-0.04,0.01c-4.55,0.64-8.79-2.71-9.46-7.49l-2.04-13.6c0.32,6.72-3.09,13.1-8.81,16.58"/>
	</g>
</g>
</svg>
