<?xml version="1.0" encoding="utf-8"?>
<!-- Generator: Adobe Illustrator 27.2.0, SVG Export Plug-In . SVG Version: 6.00 Build 0)  -->
<svg version="1.1" xmlns="http://www.w3.org/2000/svg" xmlns:xlink="http://www.w3.org/1999/xlink" x="0px" y="0px"
	 viewBox="0 0 89.25 62.42" style="enable-background:new 0 0 89.25 62.42;" xml:space="preserve">
<style type="text/css">
	.st0{fill:#FFFFFF;}
	.st1{fill:none;stroke:#000000;stroke-miterlimit:10;}
	.st2{fill:none;stroke:#000000;stroke-linecap:round;stroke-linejoin:round;stroke-miterlimit:10;}
</style>
<g id="Layer_2">
</g>
<g id="Layer_3">
	<path class="st0" d="M8.58,0.35h30.41h1.92l24.82,0c12.69,0,23.01,10.32,23.01,23.01v15.7c0,12.69-10.32,23.01-23.01,23.01H47.89
		h-8.9H28.55c-4.46,0-8.09-3.63-8.09-8.09c0-3.34,2.04-6.22,4.94-7.45c-3.32-1.01-5.74-4.09-5.74-7.74c0-3.15,1.81-5.88,4.45-7.21
		c-3.84-0.62-6.79-3.96-6.79-7.97c0-3.06,1.71-5.72,4.22-7.1H8.58c-4.46,0-8.09-3.63-8.09-8.09S4.13,0.35,8.58,0.35z"/>
</g>
<g id="Layer_1">
	<g>
		<path class="st1" d="M39.49,61.58h26.25c12.44,0,22.52-10.08,22.52-22.52v-15.7c0-12.44-10.08-22.52-22.52-22.52H49.82H39.49"/>
		<path class="st1" d="M40.92,0.85H8.59c-4.19,0-7.59,3.4-7.59,7.59v0c0,4.19,3.4,7.59,7.59,7.59h30.13"/>
		<path class="st1" d="M38.72,16.03H25.41c-4.19,0-7.59,3.4-7.59,7.59v0c0,4.19,3.4,7.59,7.59,7.59h11.17"/>
		<path class="st1" d="M36.57,31.21h-8.82c-4.19,0-7.59,3.4-7.59,7.59v0c0,4.19,3.4,7.59,7.59,7.59h19.34c4.19,0,7.59-3.4,7.59-7.59
			v0c0-1.8-0.62-3.45-1.67-4.75"/>
		<path class="st1" d="M28.55,61.58h19.34c4.19,0,7.59-3.4,7.59-7.59v0c0-4.19-3.4-7.59-7.59-7.59H28.55c-4.19,0-7.59,3.4-7.59,7.59
			v0C20.96,58.18,24.36,61.58,28.55,61.58z"/>
		<path class="st2" d="M49.82,0.85c-5.13-0.08-9.37,2.93-10.07,7.87l-1.03,7.32l-1.75,12.38l-0.45,3.2
			c-0.68,4.78,2.47,9.17,7.02,9.81l0.04,0.01c4.55,0.64,8.79-2.71,9.46-7.49l2.04-13.6c-0.32,6.72,3.09,13.1,8.81,16.58"/>
	</g>
</g>
</svg>
